<svg width="166" height="57" viewBox="0 0 166 57" fill="none" xmlns="http://www.w3.org/2000/svg">
<path d="M4.9 50.8223H0.951996L7.408 32.8343H11.464L17.908 50.8223H13.9L9.952 38.1983L9.4 36.1343L8.836 38.1983L4.9 50.8223ZM4.612 47.0423L5.104 44.3663H13.288L13.78 47.0423H4.612Z" fill="black"/>
<path d="M19.7236 50.8223V37.4663H23.0476L23.1076 38.9663C23.4116 38.7103 23.7996 38.4543 24.2716 38.1983C24.7436 37.9343 25.2636 37.7143 25.8316 37.5383C26.4076 37.3623 26.9876 37.2703 27.5716 37.2623C28.9636 37.2303 29.9876 37.6023 30.6436 38.3783C31.2996 39.1463 31.6276 40.4983 31.6276 42.4343V50.8223H27.9556V42.9503C27.9556 41.9103 27.8196 41.1823 27.5476 40.7663C27.2756 40.3503 26.7436 40.1583 25.9516 40.1903C25.7116 40.1983 25.4396 40.2423 25.1356 40.3223C24.8396 40.3943 24.5356 40.5063 24.2236 40.6583C23.9196 40.8023 23.6356 40.9823 23.3716 41.1983V50.8223H19.7236Z" fill="black"/>
<path d="M40.5797 56.8703C38.4757 56.8543 36.9077 56.4983 35.8757 55.8023C34.8517 55.1143 34.3397 54.1343 34.3397 52.8623C34.3397 52.3903 34.4517 51.9623 34.6757 51.5783C34.8997 51.2023 35.2037 50.8823 35.5877 50.6183C35.9797 50.3463 36.4237 50.1383 36.9197 49.9943L39.0077 50.1863C38.8717 50.2983 38.7117 50.4383 38.5277 50.6063C38.3517 50.7743 38.1957 50.9903 38.0597 51.2543C37.9237 51.5183 37.8557 51.8543 37.8557 52.2623C37.8557 52.7183 37.9397 53.1343 38.1077 53.5103C38.2837 53.8863 38.5797 54.1863 38.9957 54.4103C39.4197 54.6343 40.0077 54.7463 40.7597 54.7463C41.3837 54.7463 41.9517 54.6743 42.4637 54.5303C42.9837 54.3943 43.3917 54.1783 43.6877 53.8823C43.9917 53.5943 44.1437 53.2183 44.1437 52.7543C44.1437 52.3543 44.0717 52.0023 43.9277 51.6983C43.7917 51.4023 43.5157 51.1703 43.0997 51.0023C42.6917 50.8343 42.0877 50.7503 41.2877 50.7503H39.0677C38.7637 50.7503 38.4957 50.7303 38.2637 50.6903C38.0317 50.6423 37.8037 50.5943 37.5797 50.5463C37.4277 50.5063 37.3197 50.4663 37.2557 50.4263C37.1997 50.3783 37.0877 50.3383 36.9197 50.3063C36.3197 50.1383 35.8917 49.8943 35.6357 49.5743C35.3797 49.2463 35.2517 48.8423 35.2517 48.3623C35.2597 48.0503 35.3277 47.7263 35.4557 47.3903C35.5837 47.0463 35.8037 46.7183 36.1157 46.4063C36.4277 46.0863 36.8517 45.8143 37.3877 45.5903L39.4517 45.9623C39.1317 46.0823 38.8797 46.2743 38.6957 46.5383C38.5197 46.7943 38.4317 47.0503 38.4317 47.3063C38.4317 47.6983 38.5517 47.9703 38.7917 48.1223C39.0397 48.2663 39.4637 48.3383 40.0637 48.3383H42.4757C43.5077 48.3383 44.3597 48.4383 45.0317 48.6383C45.7037 48.8383 46.2317 49.1143 46.6157 49.4663C46.9997 49.8103 47.2677 50.2023 47.4197 50.6423C47.5797 51.0743 47.6597 51.5263 47.6597 51.9983C47.6597 52.7983 47.4677 53.5023 47.0837 54.1103C46.6997 54.7263 46.1757 55.2383 45.5117 55.6463C44.8477 56.0543 44.0917 56.3623 43.2437 56.5703C42.3957 56.7783 41.5077 56.8783 40.5797 56.8703ZM40.3877 46.2983C39.2837 46.2983 38.3037 46.1223 37.4477 45.7703C36.5997 45.4183 35.9357 44.9103 35.4557 44.2463C34.9757 43.5823 34.7357 42.7903 34.7357 41.8703C34.7357 40.8703 34.9717 40.0303 35.4437 39.3503C35.9157 38.6703 36.5757 38.1583 37.4237 37.8143C38.2797 37.4703 39.2757 37.2943 40.4117 37.2863C41.5557 37.2783 42.5597 37.4423 43.4237 37.7783C44.2957 38.1143 44.9717 38.6183 45.4517 39.2903C45.9397 39.9543 46.1837 40.7783 46.1837 41.7623C46.1837 42.7383 45.9597 43.5663 45.5117 44.2463C45.0637 44.9183 44.4077 45.4303 43.5437 45.7823C42.6797 46.1263 41.6277 46.2983 40.3877 46.2983ZM40.4357 44.2463C41.1397 44.2463 41.7037 44.0863 42.1277 43.7663C42.5597 43.4383 42.7757 42.7943 42.7757 41.8343C42.7757 41.0583 42.5877 40.4743 42.2117 40.0823C41.8437 39.6823 41.2797 39.4823 40.5197 39.4823C40.0717 39.4823 39.6797 39.5503 39.3437 39.6863C39.0077 39.8143 38.7437 40.0463 38.5517 40.3823C38.3677 40.7183 38.2757 41.1903 38.2757 41.7983C38.2757 42.4623 38.4397 43.0383 38.7677 43.5263C39.0957 44.0063 39.6517 44.2463 40.4357 44.2463ZM44.6117 40.0583L44.0357 38.5463C44.1957 38.3303 44.5197 38.0903 45.0077 37.8263C45.4957 37.5543 46.0677 37.4183 46.7237 37.4183H48.2837V40.0583H44.6117Z" fill="black"/>
<path d="M55.7957 51.0143C53.7397 51.0143 52.1637 50.4023 51.0677 49.1783C49.9717 47.9543 49.4237 46.2623 49.4237 44.1023C49.4237 42.8063 49.6717 41.6463 50.1677 40.6223C50.6717 39.5983 51.3997 38.7903 52.3517 38.1983C53.3037 37.5983 54.4677 37.2943 55.8437 37.2863C56.5397 37.2783 57.2037 37.3663 57.8357 37.5503C58.4677 37.7343 59.0317 38.0343 59.5277 38.4503C60.0237 38.8583 60.4197 39.4023 60.7157 40.0823C61.0197 40.7543 61.1757 41.5783 61.1837 42.5543C61.1837 43.0423 61.1757 43.4943 61.1597 43.9103C61.1437 44.3263 61.1077 44.6823 61.0517 44.9783H51.3917L51.6317 42.9983H57.7757C57.8157 42.3503 57.7797 41.7823 57.6677 41.2943C57.5637 40.7983 57.3557 40.4143 57.0437 40.1423C56.7317 39.8623 56.2917 39.7223 55.7237 39.7223C55.1717 39.7223 54.6877 39.8743 54.2717 40.1783C53.8637 40.4823 53.5477 41.0063 53.3237 41.7503C53.1077 42.4863 53.0157 43.5023 53.0477 44.7983C53.0797 45.6703 53.2477 46.3703 53.5517 46.8983C53.8637 47.4183 54.2837 47.7943 54.8117 48.0263C55.3477 48.2503 55.9677 48.3623 56.6717 48.3623C57.0557 48.3623 57.4757 48.3303 57.9317 48.2663C58.3877 48.2023 58.8197 48.1183 59.2277 48.0143C59.6357 47.9023 59.9477 47.7903 60.1637 47.6783L60.7757 49.6703C60.4797 49.9103 60.0717 50.1343 59.5517 50.3423C59.0397 50.5423 58.4557 50.7023 57.7997 50.8223C57.1517 50.9503 56.4837 51.0143 55.7957 51.0143Z" fill="black"/>
<path d="M64.0902 50.8223V31.3223H67.7622V50.8223H64.0902Z" fill="black"/>
<path d="M75.3616 50.8223H71.6056V32.9903C71.7656 32.9903 71.9216 32.9903 72.0736 32.9903C72.2336 32.9903 72.3896 32.9903 72.5416 32.9903C72.7016 32.9903 72.8616 32.9903 73.0216 32.9903C73.6296 32.9903 74.3376 32.9583 75.1456 32.8943C75.9536 32.8303 76.9216 32.7983 78.0496 32.7983C78.8816 32.7983 79.6816 32.8903 80.4496 33.0743C81.2176 33.2503 81.9016 33.5463 82.5016 33.9623C83.1096 34.3703 83.5896 34.9223 83.9416 35.6183C84.2936 36.3143 84.4696 37.1783 84.4696 38.2103C84.4696 39.3703 84.2776 40.3343 83.8936 41.1023C83.5096 41.8623 82.9696 42.4583 82.2736 42.8903C81.5856 43.3143 80.7776 43.5983 79.8496 43.7423C79.5296 43.7903 79.2056 43.8383 78.8776 43.8863C78.5496 43.9263 78.1176 43.9623 77.5816 43.9943C77.0456 44.0183 76.3056 44.0303 75.3616 44.0303V50.8223ZM75.3616 41.3903C75.5296 41.4143 75.7656 41.4343 76.0696 41.4503C76.3736 41.4663 76.6816 41.4743 76.9936 41.4743C77.3136 41.4743 77.5696 41.4743 77.7616 41.4743C78.7776 41.4743 79.5376 41.1903 80.0416 40.6223C80.5536 40.0463 80.8096 39.2743 80.8096 38.3063C80.8096 37.7623 80.7136 37.2783 80.5216 36.8543C80.3376 36.4223 80.0096 36.0863 79.5376 35.8463C79.0656 35.5983 78.4056 35.4743 77.5576 35.4743C77.1816 35.4743 76.8016 35.4943 76.4176 35.5343C76.0336 35.5663 75.6816 35.6183 75.3616 35.6903V41.3903ZM81.5296 50.8223C81.4256 50.6863 81.3336 50.5343 81.2536 50.3663C81.1816 50.1903 81.0576 49.9103 80.8816 49.5263C80.6336 48.9903 80.4016 48.4103 80.1856 47.7863C79.9776 47.1623 79.7576 46.5663 79.5256 45.9983C79.2936 45.4303 79.0256 44.9583 78.7216 44.5823C78.4176 44.2063 78.0496 44.0023 77.6176 43.9703L78.6736 43.1423L81.0136 42.9863C81.4696 43.1863 81.8696 43.5303 82.2136 44.0183C82.5656 44.4983 82.8856 45.0543 83.1736 45.6863C83.4696 46.3183 83.7576 46.9703 84.0376 47.6423C84.3256 48.3143 84.6336 48.9383 84.9616 49.5143C85.0816 49.7383 85.2016 49.9583 85.3216 50.1743C85.4496 50.3903 85.5736 50.6063 85.6936 50.8223H81.5296Z" fill="black"/>
<path d="M93.1621 51.0143C91.9941 51.0143 91.0021 50.8263 90.1861 50.4503C89.3701 50.0663 88.7101 49.5423 88.2061 48.8783C87.7101 48.2143 87.3501 47.4543 87.1261 46.5983C86.9021 45.7343 86.7941 44.8223 86.8021 43.8623C86.8261 42.4383 87.1221 41.2383 87.6901 40.2623C88.2661 39.2863 89.0461 38.5463 90.0301 38.0423C91.0221 37.5383 92.1461 37.2863 93.4021 37.2863C94.9701 37.2863 96.2221 37.6143 97.1581 38.2703C98.0941 38.9263 98.7661 39.7983 99.1741 40.8863C99.5821 41.9663 99.7741 43.1423 99.7501 44.4143C99.7341 45.8463 99.4421 47.0543 98.8741 48.0383C98.3061 49.0143 97.5301 49.7543 96.5461 50.2583C95.5621 50.7623 94.4341 51.0143 93.1621 51.0143ZM93.2581 48.4583C94.2101 48.4663 94.9021 48.1103 95.3341 47.3903C95.7661 46.6703 95.9821 45.6263 95.9821 44.2583C95.9821 43.4503 95.8941 42.7143 95.7181 42.0503C95.5421 41.3863 95.2581 40.8543 94.8661 40.4543C94.4821 40.0543 93.9701 39.8503 93.3301 39.8423C92.3701 39.8343 91.6741 40.1863 91.2421 40.8983C90.8101 41.6023 90.5941 42.6223 90.5941 43.9583C90.5941 44.7743 90.6821 45.5263 90.8581 46.2143C91.0341 46.8943 91.3141 47.4383 91.6981 47.8463C92.0901 48.2543 92.6101 48.4583 93.2581 48.4583Z" fill="black"/>
<path d="M104.55 51.0143L100.506 37.4543H104.106L105.702 43.8623L106.77 48.8903H105.942L107.07 43.8743L108.906 37.4543H112.29L114.126 43.8623L115.206 48.8543H114.414L115.458 43.8983L117.042 37.4543H120.498L116.334 51.0143H113.082L110.97 43.6343L110.154 39.6503H110.814L109.974 43.6343L107.922 51.0143H104.55Z" fill="black"/>
<path d="M121.73 49.9703L122.138 47.3903C122.266 47.4943 122.526 47.6303 122.918 47.7983C123.31 47.9663 123.778 48.1223 124.322 48.2663C124.866 48.4023 125.426 48.4703 126.002 48.4703C126.73 48.4783 127.266 48.3823 127.61 48.1823C127.954 47.9743 128.126 47.6663 128.126 47.2583C128.126 46.9783 128.01 46.7343 127.778 46.5263C127.554 46.3183 127.246 46.1263 126.854 45.9503C126.462 45.7663 126.026 45.5783 125.546 45.3863C124.682 45.0423 123.966 44.6663 123.398 44.2583C122.838 43.8503 122.418 43.3863 122.138 42.8663C121.866 42.3383 121.734 41.7223 121.742 41.0183C121.75 40.1863 121.99 39.4943 122.462 38.9423C122.942 38.3903 123.578 37.9783 124.37 37.7063C125.17 37.4263 126.054 37.2863 127.022 37.2863C128.006 37.2863 128.842 37.3783 129.53 37.5623C130.226 37.7383 130.702 37.9023 130.958 38.0543L130.562 40.6823C130.41 40.5543 130.17 40.4183 129.842 40.2743C129.514 40.1303 129.142 40.0143 128.726 39.9263C128.318 39.8303 127.902 39.7823 127.478 39.7823C126.702 39.7823 126.134 39.8783 125.774 40.0703C125.422 40.2543 125.246 40.5223 125.246 40.8743C125.238 41.3303 125.414 41.6703 125.774 41.8943C126.142 42.1103 126.65 42.3543 127.298 42.6263C128.258 43.0183 129.062 43.4103 129.71 43.8023C130.366 44.1863 130.858 44.6303 131.186 45.1343C131.522 45.6303 131.69 46.2383 131.69 46.9583C131.69 48.2863 131.214 49.2943 130.262 49.9823C129.31 50.6703 128.026 51.0143 126.41 51.0143C125.73 51.0143 125.074 50.9583 124.442 50.8463C123.818 50.7423 123.266 50.6103 122.786 50.4503C122.314 50.2903 121.962 50.1303 121.73 49.9703Z" fill="black"/>
<path d="M148.436 17.2374C154.294 23.0953 165.528 21.3579 165.528 21.3579C157.718 29.1684 146.638 30.7513 140.78 24.8934C134.922 19.0355 136.505 7.95515 144.315 0.144661C144.315 0.144661 142.578 11.3796 148.436 17.2374Z" fill="#FF2244"/>
</svg>



